<svg xmlns="http://www.w3.org/2000/svg" version="1.1" xmlns:xlink="http://www.w3.org/1999/xlink" xmlns:svgjs="http://svgjs.dev/svgjs" width="1000" height="1125" viewBox="0 0 1000 1125"><g transform="matrix(1,0,0,1,0.000006425112871966121,0)"><svg viewBox="0 0 320 360" data-background-color="#ffffff" preserveAspectRatio="xMidYMid meet" height="1125" width="1000" xmlns="http://www.w3.org/2000/svg" xmlns:xlink="http://www.w3.org/1999/xlink"><g id="tight-bounds" transform="matrix(1,0,0,1,0.0000020560361235766322,0)"><svg viewBox="0 0 320 360" height="360" width="320"><g><svg></svg></g><g><svg viewBox="0 0 320 360" height="360" width="320"><g><path transform="translate(-15.58119,4.24857) scale(3.51065,3.51065)" d="M51.5 85.2c-0.4-0.5-0.8-0.2-0.8-0.5-2.4 0.6-6.9-1-8.8-0.8 0.4-0.6-0.6-0.5-0.6-0.9-0.4 0.6-0.8 0-1.4 0.2-0.6-1.5-3-0.4-3.3-2.3-1.4 0-1.9-0.8-3.3-1.6 0.1-0.1 0.2-0.1 0.3-0.2-0.7-0.1-0.7-0.5-1.3-0.5l0.2-0.4c-1.1-0.2-1.5-1.9-3.1-2.5-0.5-0.1-1.6-1.8-2.2-2.2-0.3-0.2-0.8-0.2-0.1-0.3-0.1-0.1-0.1-0.3 0-0.4-0.7-0.2-0.8-0.8-1.7-1.1-0.1-0.3 0.2-0.5 0-0.7-0.2-0.1-0.5 0.1-0.7 0-0.1 1.8 1.9 2 2.5 3.5-0.2-0.2-0.5-0.8-0.7-0.4-0.1 0.3 0.8 1.4 0.8 0.8-0.3 0.2-0.4-0.3-0.2-0.4 0.3 0.5 0.9 0.4 0.9 0.8-0.3 0.3-0.7-0.3-0.6 0.2 0.9 0.5 0.8 1 1.3 1.7-0.4-0.5-0.5 0.4-0.9 0-0.1-1.5-1.8-1.2-1.8-2.7-0.2-0.5-0.4-0.1-0.7-0.3 0.4-0.4-1.2-1.8-1.2-1.3-0.5-0.6-0.2-0.8-0.3-1.2-0.4-0.1-0.1 0.4-0.4 0.1 0.4-0.7-0.5-1.6-1.1-2.3l0.4-0.2c-0.7-0.4-0.8-1.2-1.3-2.1-0.6 0.9 1.2 2.9 0.9 3.3 0 0.1 0.7 0.9 0.9 1.3 0.8 1.4 1.4 3.1 2.5 3.9-0.2-0.1-0.1-0.7 0.2-0.4 0 0.3-0.2 0.6-0.2 0.9 0.6 0.6 1.1 1.1 1.7 1.7-1.3-0.8-2.6-1.6-3.5-2.8 0.5-0.1 1 0.8 1.4 0.7-1-0.8-0.7-1.1-1.1-2.1-0.4-0.3 0.1 0.4-0.3 0.5-1.3-1.2-2.3-1.9-2.9-3 0.1-0.1 0.2-0.2 0.2-0.4-0.1-0.1-0.1-0.1-0.2-0.2 0.6 0.6 0.8 1.1 1.5 1.2-0.3-0.3 0-0.4-0.4-0.7-0.2-0.4-0.5 0.2-0.7-0.1 0.2-0.3 0-0.7 0-1-0.2 0-0.4 0-0.5-0.3-0.2-0.1-0.3 0-0.4 0.2-0.1-0.1-0.1-0.3-0.2-0.4v-0.1c-0.1-0.1-0.2-0.3-0.3-0.4-0.8-2.1-1.3-4.9-2.4-6.7 0.3-1.2-0.2-3.6-0.5-4.2 0.3-0.5 0.1-2.8-0.1-3.2-0.5 0.2 0.1 1.3-0.4 1.6-0.5-2.2 0.3-4.7 0.1-6.7 0.2 0 0.4 0 0.4-0.1-0.3-0.3 0.2-0.9 0.1-1.6 0.4-0.9-0.9 1.3-0.9 2.2-0.1 0.2-0.5 0-0.4 0.5 0 0.7 0.2 2.1-0.2 3.1-0.2 0-0.2-0.2-0.4-0.1-0.1 0.5-0.2 1.1-0.3 1.6-0.1-0.2-0.2-0.5-0.2-0.6-0.5-2.5 0-5.4-0.2-7.5 0.4 0 0.4-0.6 0.7-0.8-0.1 0.8-0.3 1.8 0.2 2 0.4-3.9 1.2-8.2 3-12.4 1.3-3.1 3.2-6.2 5.5-8.7 0.2 0.3-0.1 1 0 1.3 2-2.1 3.3-4.6 5.5-6 0.1 0.5-0.9 0.9-0.9 1.3 0.9-0.9 1.2-0.6 2.2-0.9 0.3-0.4-0.4 0-0.5-0.4 0.6-0.4 1-0.9 1.4-1.2 0 0.1-0.1 0.1-0.1 0.2 1.1-0.3 1.2-0.9 2-1.1-0.1-0.1-0.3-0.2-0.6-0.1 0.2-0.1 0.5-0.3 0.8-0.4-0.1 0-0.1 0.1-0.2 0.1 0.6-0.3 0.1 0.1 0.1 0.3 0.1 0 0.2-0.1 0.2-0.1-0.6 0.4-1 0.6-1.2 1.3 0.3-0.2 0.4 0 0.8-0.3 0.4-0.2-0.1-0.5 0.2-0.7 0.3 0.2 0.7 0.1 1 0.1 0-0.2 0.1-0.4 0.3-0.5 0.1-0.2 0-0.3-0.1-0.3 0.1-0.1 0.2-0.1 0.4-0.2 0 0 0.1 0 0.1 0.1 1.7-0.8 3.6-1.5 5.4-2.1 1.1-0.1 2.5-0.1 3.1-0.8-0.2 0-0.4 0.1-0.5 0 0.1 0 0.3-0.1 0.4-0.1 0.2 0.2 0.5 0 0.2 0.4 0.1 0 0.1 0 0.2-0.1 0 0.1 0 0.1 0.1 0.2 0.1 0 0.2-0.1 0.3-0.3 0.1 0 0.2 0 0.3-0.1l-0.1 0.1c0.8-0.2 1.5-0.1 2.6-0.3 0-0.1 0-0.2 0-0.3 0.2 0 0.3-0.1 0.5-0.1v0.1c0.4-0.2 0.8 0.2 0.8 0 0.1 0 0.1 0 0.2 0 0 0.2-0.1 0.3-0.1 0.4 0.5 0 0.8 0 1-0.3-0.1-0.1-0.2-0.1-0.3-0.1 0.2 0 0.4-0.1 0.6-0.2 0.3 0.1 0.4 0.2 0.4 0.6 0.5-0.9 2.1 0.2 2.8 0 0.3 0 0.2-0.4 0.4-0.6 0.1 0 0.2 0 0.3 0 0.5 0.4 1.2 0.8 2.1 0.9-0.8-0.2 0.1-0.3 0.2-0.4-0.2 0-0.2-0.1-0.2-0.2 0.3 0 0.6 0.1 0.9 0.1 0 0.2 0.1 0.3 0.3 0.3 0.2 0 0.2-0.1 0.2-0.3 0.3 0 0.5 0 0.8 0.1-0.1 0.4 0.5 0.5 0.7 0.8-0.8-0.2-1.7-0.5-2 0 3.2 0.7 6.7 1.7 10.1 3.4 0 0 0 0 0 0.1h0.1c0.6 0.3 1.2 0.6 1.8 0.9 0.4 0.2 0.7 0.4 1.1 0.7 0 0.1 0 0.2 0.2 0.2h0.1c0.4 0.3 0.8 0.5 1.2 0.8 0.4 0.6 0.8 1.4 1.5 1.2 1.5 2.3 3.1 3.2 4.4 5.6 0.1-0.4 0.4 0.9 0.9 1-0.8-0.1 0.5 0.5-0.3 0.4 0.7 0.7 0.9 1 1 1.8-0.2-0.4-0.3-0.5-0.4-0.1-0.1 0.6 0.7-0.1 1 0.5-0.6 0-0.4 0.4-0.3 0.9 0.3-0.3 0.2-0.6 0.5-0.5 0.4 0.4-0.2 0.5-0.1 0.8 0.3-0.4 0.4-0.2 0.8 0-0.5 0.1 0.3 0.8-0.3 0.5 0.4 0.5 0.5 0.8 0.3 1.3-0.4-0.6-0.1-1-0.7-0.9 1.2 1 0.6 3.3 2 3.5-0.9 0.2 0 0.6-0.5 0.7 0.6 0.2 0.3 1 1 1.2-0.1 0.5-0.3 0.8-0.4 1.3 0.3 0.4 0.4 1.2 0.9 1.3-0.3 0.3-0.1 1.1-0.4 1.4 0.4-0.2 0.6-0.2 0.9 0.2-0.5 0.4-0.1 0.8-0.4 0.9 0.9 2.3-0.2 7 0.3 8.8-0.6-0.3-0.4 0.7-0.8 0.7 0.7 0.3 0.1 0.8 0.4 1.3-1.4 0.8 0 3-1.9 3.5 0.2 1.4-0.6 2-1.2 3.5-0.1-0.1-0.1-0.2-0.2-0.3-0.1 0.7-0.5 0.8-0.3 1.4l-0.4-0.2c0 1.1-1.7 1.7-2.1 3.4-0.1 0.5-1.6 1.8-2 2.5-0.2 0.3-0.1 0.8-0.3 0.1-0.1 0.1-0.3 0.1-0.4 0.1-0.1 0.7-0.7 0.9-0.9 1.8-0.2 0.1-0.5-0.2-0.7 0.1 0 0.2 0.2 0.5 0.1 0.7 1.8-0.1 1.8-2.2 3.2-2.9-0.1 0.3-0.7 0.6-0.3 0.8 0.3 0 1.2-1 0.7-0.9 0.3 0.2-0.3 0.4-0.4 0.3 0.5-0.4 0.3-0.9 0.7-1 0.3 0.2-0.3 0.7 0.3 0.6 0.4-0.9 0.9-1 1.5-1.5-0.4 0.4 0.5 0.5 0.1 0.9-1.5 0.3-1 2-2.5 2.2-0.4 0.3-0.1 0.4-0.2 0.7-0.5-0.3-1.6 1.4-1.2 1.3-0.5 0.5-0.8 0.3-1.2 0.4-0.1 0.4 0.4 0.1 0.2 0.4-0.7-0.3-1.6 0.7-2.2 1.4l-0.3-0.3c-0.3 0.8-1.1 0.9-2 1.5 1 0.5 2.7-1.6 3.2-1.3 0.1 0 0.9-0.8 1.2-1.1 1.3-1 2.9-1.8 3.5-2.9-0.1 0.2-0.7 0.2-0.4-0.1 0.3-0.1 0.6 0.1 0.9 0.1 1.6-2.2 3.6-4 5.1-6.6 0.1-0.1 0.2-0.3 0.3-0.5-0.2 0.6-0.5 1.1-0.7 1.7-1.6 1.1-2.2 4.3-4.1 4.8 0.1 1.1-0.9 1.4-1.4 2.7-0.3 0.4-0.5-0.3-0.8 0.2 0.3 1.4-2.5 1.3-2.4 2.6-0.2 0.1-0.5 0.2-0.7 0.4h-0.1c-0.1 0.1-0.1 0.1-0.2 0.2-0.5 0.3-0.9 0.6-1.3 0.9-1.4 0.8-3.3 1.4-4.8 2.2v-0.1c-0.4 0.2-0.9 0.1-0.8 0.5-0.3 0.2-0.6 0.4-0.9 0.6-0.1 0-0.1 0-0.2 0 0 0-0.1-0.1-0.2-0.1-0.2 0-0.2 0-0.3 0.1-1.3 0.1-3 0.7-3.5 1.1-0.5-0.3-2.8 0.2-3.2 0.4 0.2 0.3 0.8 0 1.3 0-0.3 0.1-0.6 0.2-0.7 0.4-0.1 0-0.1 0-0.2 0-0.1-0.3-0.4 0-0.5-0.1h0.1c-0.1-0.4-0.4-0.6-0.9-0.5 0 0.2 0 0.3-0.1 0.5 0.2 0 0.8-0.3 0.8 0-0.1 0-0.1 0.1 0 0.1-0.2 0.2-0.5 0.2-0.7 0.3-0.4 0-0.9 0-1.3 0-0.1-0.1-0.2-0.1-0.4-0.2-0.1 0.1-0.3 0.1-0.4 0.2-0.6 0-1.3 0.1-1.8 0.2 0-0.2 0-0.4-0.2-0.4-0.3 0.4-0.9-0.1-1.6 0.1-0.7-0.2 0.4 0.3 1.4 0.5-0.1 0.1-0.2 0.2-0.5 0.3M37.5 86.6c-1.4-1.3-4.3-1.9-4.8-2.9-0.8-0.1-2-1.6-3-1.8 0.5 0 0.1-0.3 0-0.5-0.2 0.2-0.4 0.3-0.6 0.3 0-0.8-0.8-1.3-1.5-1.8 0.5 0.3 0.9 0.5 1.5 0.6 0-0.2 0-0.4 0.2-0.4 0.7 0.7 1.5 1.4 2.4 2.1 1.2 1.1 7.4 3.9 8.5 4.4 0 0-0.2 0.4-0.1 0.4 0.5 0.3 0.9-0.3 1 0.4-1.6 0.2-2.2-0.9-3.6-0.8M83.6 63.4v0.1 0c-0.1 0 0-0.1 0-0.1M43.2 17.1c-0.1 0.1-0.2 0.1-0.2 0.1 0-0.1 0.1-0.1 0.2-0.1M41.3 17.6c0 0.1 0 0.1 0 0 0 0.1 0 0.1 0 0 0 0.1 0 0 0 0M34.7 19.7v0c0.1-0.1 0.1-0.1 0.2-0.1-0.1 0-0.2 0.1-0.2 0.1M50.7 16.4c-0.2 0-0.3 0-0.4-0.1 0.1 0 0.2 0 0.3 0h0.1c0 0 0 0 0 0.1M52.5 16.6c-0.1-0.1-0.4-0.2-0.7-0.2 0-0.1 0.1-0.2 0.1-0.2 0.1 0 0.2 0 0.3 0 0 0 0.1 0 0.1 0.1 0 0 0 0 0-0.1 0.1 0 0.1 0 0.2 0 0.1 0.2 0.2 0.3 0 0.4M55.8 16.9c-0.5 0.1-0.8-0.1-1.3-0.4 0.3 0 0.7 0.1 1 0.2 0.1 0 0.2 0.1 0.3 0.2M91.4 31.1c-0.2 0.1-0.3 0.1-0.5-0.3-1.6-3.4-4.5-8.3-8.7-12.4-4.1-4.2-9.6-7.6-14.6-9.4 0.3 0.1 0.7 0.3 0.5 0.5-4.4-1.7-8.6-2.7-12.6-3.1-10.8-1.7-22.1 0.6-30.8 6.2 0.1 0.2 0.1 0.3-0.2 0.5-3.2 2-7.7 5.5-11.3 10.1-3.6 4.6-6.4 10.4-7.6 15.6 0.1-0.3 0.2-0.8 0.4-0.6-2.6 10.3-1.9 19.1 1.7 26.7 0.2-0.2-0.5-1.2 0.1-1.1 0.4 1.1 0.9 2.3 1.5 3.4 0.7 1.6 1.5 3.7 2.6 4.2-2.8-5.5-4.7-11.8-4.9-17.4 0.4 0.8 0.3 2.5 0.9 3.2 0.2-3.8-0.7-8.9 0.6-12.5-0.3 1.9-0.5 4.5-0.3 7.1 0 1.9 0.9 7.2 1.5 7.7-0.1-0.1-0.1-0.6 0-0.6 0.3 0.6-0.4 0.9 0.1 1 0-0.2 0.1-0.2 0.2-0.2 1 2.2 2.3 5.6 3.3 7.3 1.2 2.2 2.8 4.2 4.6 6 0 0.1 0.1 0.1 0.1 0.2 0.2 0.5 0.9 1.1 1.1 1.5 0.1 0.2-0.1 0.5 0 0.7 1.5 2.8 3.7 5.6 6.4 7.8 1.7 2 4.4 4.1 7.7 5.9 3.2 1.7 6.9 3.1 10.3 3.9 2.4 0.6 5.3 0.7 7.1 1.1 2.4 0.5 6.6-0.2 8.7-0.6 12.6-1.9 25.1-10.5 31.4-22.9 6.5-12.5 6.3-27.8 0.7-39.5" fill="#ca3433" fill-rule="nonzero" stroke="none" stroke-width="1" stroke-linecap="butt" stroke-linejoin="miter" stroke-miterlimit="10" stroke-dasharray="" stroke-dashoffset="0" font-family="none" font-weight="none" font-size="none" text-anchor="none" style="mix-blend-mode: normal" data-fill-palette-color="tertiary"></path></g><g transform="matrix(1,0,0,1,80,131.5512703851723)"><svg viewBox="0 0 160 96.89745922965537" height="96.89745922965537" width="160"><g><svg viewBox="0 0 160 96.89745922965537" height="96.89745922965537" width="160"><g><svg viewBox="0 0 160 96.89745922965537" height="96.89745922965537" width="160"><g transform="matrix(1,0,0,1,0,58.299138928468)"><svg viewBox="0 0 160 38.59832030118737" height="38.59832030118737" width="160"><g id="textblocktransform"><svg viewBox="0 0 160 38.59832030118737" height="38.59832030118737" width="160" id="textblock"><g><svg viewBox="0 0 160 38.59832030118737" height="38.59832030118737" width="160"><g transform="matrix(1,0,0,1,0,0)"><svg width="160" viewBox="-1.5 -39.25 173.64 42.65" height="38.59832030118737" data-palette-color="#ff0909"><path d="M13.25-34.3L13.25-34.3Q15-34.3 16.6-33.98 18.2-33.65 19.53-33.23 20.85-32.8 21.78-32.35 22.7-31.9 23.05-31.65L23.05-31.65 20.6-27.35 19.95-27.7Q19.3-28.05 18.25-28.5 17.2-28.95 15.95-29.3 14.7-29.65 13.55-29.65L13.55-29.65Q11.75-29.65 10.43-28.8 9.1-27.95 9.1-26.15L9.1-26.15Q9.1-23.9 10.55-22.48 12-21.05 15.1-19.85L15.1-19.85Q17.1-19.05 18.68-18.18 20.25-17.3 21.35-16.15 22.45-15 23.03-13.5 23.6-12 23.6-9.9L23.6-9.9Q23.6-8 22.88-6.15 22.15-4.3 20.73-2.88 19.3-1.45 17.2-0.58 15.1 0.3 12.35 0.3L12.35 0.3Q10.4 0.3 8.65-0.1 6.9-0.5 5.48-1.03 4.05-1.55 3.03-2.1 2-2.65 1.5-2.95L1.5-2.95 3.6-7.55 4.5-7.05Q5.4-6.55 6.7-5.95 8-5.35 9.45-4.85 10.9-4.35 11.95-4.35L11.95-4.35Q14.6-4.35 15.9-5.65 17.2-6.95 17.2-9.3L17.2-9.3Q17.2-10.4 16.85-11.23 16.5-12.05 15.85-12.65 15.2-13.25 14.28-13.73 13.35-14.2 12.2-14.65L12.2-14.65Q9.95-15.6 8.18-16.55 6.4-17.5 5.15-18.73 3.9-19.95 3.25-21.53 2.6-23.1 2.6-25.3L2.6-25.3Q2.6-27.15 3.4-28.78 4.2-30.4 5.6-31.63 7-32.85 8.95-33.58 10.9-34.3 13.25-34.3ZM42.9-12.7L42.9-24.9 48.6-24.9 48.6-12.05Q48.6-9.05 48.97-7.03 49.35-5 49.8-3.75L49.8-3.75Q50.35-2.25 51-1.4L51-1.4 46.55 0.4Q45.95-0.15 45.45-1L45.45-1Q45.05-1.7 44.62-2.73 44.2-3.75 44.05-5.15L44.05-5.15Q42.7-2.2 40.25-0.95 37.8 0.3 35.15 0.3L35.15 0.3Q31.2 0.3 29.52-2 27.85-4.3 27.85-8.3L27.85-8.3 27.85-24.9 33.55-24.9 33.55-8.4Q33.55-6.3 34.3-5.1 35.05-3.9 36.85-3.9L36.85-3.9Q37.95-3.9 39.02-4.53 40.1-5.15 40.97-6.3 41.85-7.45 42.37-9.08 42.9-10.7 42.9-12.7L42.9-12.7ZM55.55-1.15L55.55-35.25 61.25-36.25 61.25-21Q62.15-23.05 63.77-24.18 65.4-25.3 67.95-25.3L67.95-25.3Q70.3-25.3 72.02-24.43 73.75-23.55 74.9-21.93 76.05-20.3 76.59-18 77.15-15.7 77.15-12.9L77.15-12.9Q77.15-10.05 76.27-7.63 75.4-5.2 73.82-3.45 72.25-1.7 70.05-0.7 67.84 0.3 65.2 0.3L65.2 0.3Q63.7 0.3 62 0.08 60.3-0.15 58.84-0.4L58.84-0.4Q57.2-0.7 55.55-1.15L55.55-1.15ZM67-21.3Q65.75-21.3 64.7-20.45 63.65-19.6 62.87-18.2 62.09-16.8 61.67-15.05 61.25-13.3 61.25-11.45L61.25-11.45 61.25-4.2Q61.7-4.1 62.7-3.9 63.7-3.7 64.55-3.7L64.55-3.7Q66.4-3.7 67.65-4.35 68.9-5 69.65-6.15 70.4-7.3 70.7-8.9 71-10.5 71-12.4L71-12.4Q71-14.15 70.9-15.75 70.8-17.35 70.37-18.6 69.95-19.85 69.15-20.58 68.34-21.3 67-21.3L67-21.3ZM87.84-36.25L87.84-21.7Q89.29-23.6 91.32-24.45 93.34-25.3 95.59-25.3L95.59-25.3Q99.44-25.3 101.17-22.98 102.89-20.65 102.89-16.7L102.89-16.7 102.89 0 97.19 0 97.19-16.3Q97.19-18.4 96.44-19.63 95.69-20.85 93.89-20.85L93.89-20.85Q92.84-20.85 91.77-20.3 90.69-19.75 89.82-18.73 88.94-17.7 88.39-16.3 87.84-14.9 87.84-13.2L87.84-13.2 87.84 0 82.14 0 82.14-35.25 87.84-36.25ZM129.24-23.85L129.24-12.05Q129.24-9.05 129.62-7.03 129.99-5 130.44-3.75L130.44-3.75Q130.99-2.25 131.64-1.4L131.64-1.4 127.19 0.4Q126.54-0.25 125.99-1.15L125.99-1.15Q125.54-1.95 125.14-3.08 124.74-4.2 124.64-5.75L124.64-5.75Q123.79-2.75 121.92-1.23 120.04 0.3 116.84 0.3L116.84 0.3Q114.49 0.3 112.77-0.58 111.04-1.45 109.89-3.08 108.74-4.7 108.19-7 107.64-9.3 107.64-12.1L107.64-12.1Q107.64-14.95 108.52-17.38 109.39-19.8 110.97-21.55 112.54-23.3 114.74-24.3 116.94-25.3 119.59-25.3L119.59-25.3Q121.09-25.3 122.72-25.08 124.34-24.85 125.74-24.6 127.14-24.35 128.12-24.13 129.09-23.9 129.24-23.85L129.24-23.85ZM117.79-3.7Q119.04-3.7 120.09-4.55 121.14-5.4 121.92-6.78 122.69-8.15 123.12-9.93 123.54-11.7 123.54-13.55L123.54-13.55 123.54-20.75Q123.04-20.9 122.04-21.1 121.04-21.3 120.24-21.3L120.24-21.3Q118.34-21.3 117.12-20.65 115.89-20 115.14-18.85 114.39-17.7 114.09-16.1 113.79-14.5 113.79-12.6L113.79-12.6Q113.79-10.85 113.89-9.25 113.99-7.65 114.42-6.4 114.84-5.15 115.64-4.42 116.44-3.7 117.79-3.7L117.79-3.7ZM169.14 0L163.49 0 163.49-16.3Q163.49-18.4 162.84-19.63 162.19-20.85 160.59-20.85L160.59-20.85Q159.64-20.85 158.66-20.33 157.69-19.8 156.89-18.8 156.09-17.8 155.59-16.4 155.09-15 155.09-13.3L155.09-13.3 155.09 0 149.44 0 149.44-16.3Q149.44-18.4 148.79-19.63 148.14-20.85 146.54-20.85L146.54-20.85Q145.54-20.85 144.56-20.28 143.59-19.7 142.81-18.6 142.04-17.5 141.56-15.93 141.09-14.35 141.09-12.4L141.09-12.4 141.09 0 135.39 0 135.39-12.6Q135.39-15.6 134.99-17.63 134.59-19.65 134.14-20.9L134.14-20.9Q133.59-22.35 132.94-23.25L132.94-23.25 137.44-25.05Q137.94-24.5 138.44-23.7L138.44-23.7Q138.84-23 139.24-21.98 139.64-20.95 139.89-19.65L139.89-19.65Q141.14-22.65 143.41-23.98 145.69-25.3 148.24-25.3L148.24-25.3Q150.79-25.3 152.21-24 153.64-22.7 154.34-20.65L154.34-20.65Q155.69-23.15 157.81-24.23 159.94-25.3 162.29-25.3L162.29-25.3Q164.24-25.3 165.56-24.68 166.89-24.05 167.66-22.93 168.44-21.8 168.79-20.23 169.14-18.65 169.14-16.7L169.14-16.7 169.14 0Z" opacity="1" transform="matrix(1,0,0,1,0,0)" fill="#ff0909" class="wordmark-text-0" data-fill-palette-color="primary" id="text-0"></path></svg></g></svg></g></svg></g></svg></g><g transform="matrix(1,0,0,1,53.34097572822114,0)"><svg viewBox="0 0 53.31804854355773 53.34287865624095" height="53.34287865624095" width="53.31804854355773"><g><svg xmlns="http://www.w3.org/2000/svg" xmlns:xlink="http://www.w3.org/1999/xlink" xml:space="preserve" version="1.1" style="shape-rendering:geometricPrecision;text-rendering:geometricPrecision;image-rendering:optimizeQuality;" viewBox="263 262.53104203632705 2014 2014.9379159273458" x="0" y="0" fill-rule="evenodd" clip-rule="evenodd" height="53.34287865624095" width="53.31804854355773" class="icon-icon-0" data-fill-palette-color="accent" id="icon-0"><g fill="#ca3433" data-fill-palette-color="accent"><path class="" d="M2277 1270c0 904-1094 1339-1720 713-392-392-392-1034 0-1426 626-626 1720-191 1720 713z m-1614-606c-333 333-333 879 0 1212 333 334 880 334 1213 0 793-792-408-2018-1213-1212z" fill="#ca3433" fill-rule="nonzero" data-fill-palette-color="accent"></path><g fill="#ca3433" data-fill-palette-color="accent"><path class="" d="M1296 275c437 0 756 654 756 1030-2 434-335 944-809 957-126 0-177-45-177-125 0-398 881-460 206-1383-83-114-154-212-171-292l195-187z m97 390c412 564 397 751-42 1284-75 91-135 165-135 188 0 15 8-25 27-25 160 0 332-93 460-246 767-921-870-1966-310-1201z" fill="#ca3433" fill-rule="nonzero" data-fill-palette-color="accent"></path></g><path class="" d="M707 1985c-152-357-90-1092 69-1438 228-500 645-11 408 424-177 326-164 485-8 818 264 561-328 527-469 196z m357 70c37-8 45-24 40-46-101-476-378-508-51-1109 64-119 102-354-46-416-5-2-13 3-23 11-199 180-394 1661 80 1560z" fill="#ca3433" fill-rule="nonzero" data-fill-palette-color="accent"></path></g></svg></g></svg></g><g></g></svg></g></svg></g></svg></g></svg></g><defs></defs></svg><rect width="320" height="360" fill="none" stroke="none" visibility="hidden"></rect></g></svg></g></svg>